<svg width="119" height="135" viewBox="0 0 119 135" fill="none" xmlns="http://www.w3.org/2000/svg">
<path d="M119 0L108.159 121.449L59.4272 134.959L10.8297 121.468L0 0H119Z" fill="#264DE4"/>
<path d="M98.8775 113.716L108.142 9.93182H59.5V124.633L98.8775 113.716Z" fill="#2965F1"/>
<path d="M24.8269 54.9826L26.1621 69.88H59.5V54.9826H24.8269Z" fill="#EBEBEB"/>
<path d="M59.5 24.8295H59.4485H22.144L23.4983 39.7273H59.5V24.8295Z" fill="#EBEBEB"/>
<path d="M59.5001 109.173V93.6731L59.4348 93.6905L42.8433 89.2104L41.7827 77.3289H33.7205H26.8279L28.915 100.72L59.4315 109.192L59.5001 109.173Z" fill="#EBEBEB"/>
<path d="M77.7934 69.8799L76.0642 89.2009L59.4487 93.6856V109.185L89.9895 100.72L90.2136 98.2034L93.7144 58.983L94.0779 54.9826L96.7673 24.8295H59.4487V39.7272H80.4409L79.0853 54.9826H59.4487V69.8799H77.7934Z" fill="white"/>
</svg>
