<svg width="113" height="128" viewBox="0 0 113 128" fill="none" xmlns="http://www.w3.org/2000/svg">
<path d="M112.681 0.168381L102.444 114.842L56.4314 127.598L10.5451 114.86L0.319336 0.168381H112.681Z" fill="#E44D26"/>
<path d="M56.5 117.848L93.6809 107.54L102.428 9.5459H56.5V117.848Z" fill="#F16529"/>
<path d="M36.6008 37.6792H56.5V23.6127H21.228L21.5645 27.3864L25.022 66.1499H56.5V52.0834H37.8865L36.6008 37.6792V37.6792ZM39.7711 73.1833H25.6505L27.6211 95.2698L56.4353 103.268L56.5 103.251V88.6155L56.4384 88.6318L40.7727 84.4018L39.7711 73.1833V73.1833Z" fill="#EBEBEB"/>
<path d="M56.4516 66.1499H73.7729L72.1398 84.393L56.4512 88.6274V103.262L85.2883 95.2698L85.4997 92.8931L88.8057 55.8607L89.1488 52.0834H56.4516V66.1499ZM56.4516 37.6448V37.6792H90.4287L90.7106 34.5177L91.3519 27.3865L91.6879 23.6127H56.4516V37.6453V37.6448Z" fill="white"/>
</svg>
