<svg width="126" height="126" viewBox="0 0 126 126" fill="none" xmlns="http://www.w3.org/2000/svg">
<path d="M126 0H0V126H126V0Z" fill="#F7DF1E"/>
<path d="M84.64 98.438C87.178 102.582 90.48 105.628 96.32 105.628C101.226 105.628 104.36 103.176 104.36 99.788C104.36 95.728 101.14 94.29 95.74 91.928L92.78 90.658C84.236 87.018 78.56 82.458 78.56 72.818C78.56 63.938 85.326 57.178 95.9 57.178C103.428 57.178 108.84 59.798 112.74 66.658L103.52 72.578C101.49 68.938 99.3 67.504 95.9 67.504C92.432 67.504 90.234 69.704 90.234 72.578C90.234 76.13 92.434 77.568 97.514 79.768L100.474 81.036C110.534 85.35 116.214 89.748 116.214 99.636C116.214 110.296 107.84 116.136 96.594 116.136C85.598 116.136 78.494 110.896 75.018 104.028L84.64 98.438ZM42.814 99.464C44.674 102.764 46.366 105.554 50.434 105.554C54.324 105.554 56.778 104.032 56.778 98.114V57.854H68.618V98.274C68.618 110.534 61.43 116.114 50.938 116.114C41.458 116.114 35.968 111.208 33.176 105.299L42.814 99.464Z" fill="black"/>
</svg>
