<svg width="125" height="125" viewBox="0 0 125 125" fill="none" xmlns="http://www.w3.org/2000/svg">
<g clip-path="url(#clip0_61_99)">
<path d="M61.9014 0C30.2445 2.25865e-06 32.2213 13.7284 32.2213 13.7284L32.2566 27.9508H62.4661V32.2211H20.2575C20.2575 32.2211 0.000244141 29.9237 0.000244141 61.8659C0.000241882 93.8081 17.6813 92.6753 17.6813 92.6753H28.2334V77.8529C28.2334 77.8529 27.6646 60.1719 45.6321 60.1719C63.5995 60.1719 75.5945 60.1719 75.5945 60.1719C75.5945 60.1719 92.4285 60.444 92.4285 43.9026C92.4285 27.3611 92.4285 16.5517 92.4285 16.5517C92.4285 16.5517 94.9844 0 61.9014 0ZM45.2439 9.56398C48.2495 9.56398 50.6788 11.9932 50.6788 14.9989C50.6788 18.0045 48.2495 20.4337 45.2439 20.4337C42.2383 20.4337 39.809 18.0045 39.809 14.9989C39.809 11.9932 42.2383 9.56398 45.2439 9.56398Z" fill="url(#paint0_linear_61_99)"/>
<path d="M62.8004 124.052C94.4574 124.052 92.4805 110.324 92.4805 110.324L92.4452 96.1013H62.2358V91.831H104.444C104.444 91.831 124.702 94.1283 124.702 62.1862C124.702 30.244 107.021 31.3767 107.021 31.3767H96.4685V46.1991C96.4685 46.1991 97.0373 63.8802 79.0698 63.8802C61.1023 63.8802 49.1073 63.8802 49.1073 63.8802C49.1073 63.8802 32.2733 63.608 32.2733 80.1495C32.2733 96.691 32.2733 107.5 32.2733 107.5C32.2733 107.5 29.7174 124.052 62.8004 124.052ZM79.458 114.488C76.4524 114.488 74.0231 112.059 74.0231 109.053C74.0231 106.048 76.4524 103.618 79.458 103.618C82.4636 103.618 84.8929 106.048 84.8929 109.053C84.8929 112.059 82.4636 114.488 79.458 114.488Z" fill="url(#paint1_linear_61_99)"/>
</g>
<defs>
<linearGradient id="paint0_linear_61_99" x1="11.9843" y1="10.8433" x2="73.6455" y2="72.7107" gradientUnits="userSpaceOnUse">
<stop stop-color="#387EB8"/>
<stop offset="1" stop-color="#366994"/>
</linearGradient>
<linearGradient id="paint1_linear_61_99" x1="49.9155" y1="50.2006" x2="116.14" y2="113.647" gradientUnits="userSpaceOnUse">
<stop stop-color="#FFE052"/>
<stop offset="1" stop-color="#FFC331"/>
</linearGradient>
<clipPath id="clip0_61_99">
<rect width="124.701" height="124.052" fill="white"/>
</clipPath>
</defs>
</svg>
