<svg width="142" height="127" viewBox="0 0 142 127" fill="none" xmlns="http://www.w3.org/2000/svg">
<g clip-path="url(#clip0_61_67)">
<path d="M70.8792 75.6978C77.8573 75.6978 83.5142 70.0409 83.5142 63.0627C83.5142 56.0846 77.8573 50.4277 70.8792 50.4277C63.901 50.4277 58.2441 56.0846 58.2441 63.0627C58.2441 70.0409 63.901 75.6978 70.8792 75.6978Z" fill="#61DAFB"/>
<path d="M70.8795 88.949C108.323 88.949 138.677 77.3592 138.677 63.0626C138.677 48.7659 108.323 37.1762 70.8795 37.1762C33.4359 37.1762 3.08179 48.7659 3.08179 63.0626C3.08179 77.3592 33.4359 88.949 70.8795 88.949Z" stroke="#61DAFB" stroke-width="6.16343"/>
<path d="M48.4605 76.0058C67.1823 108.433 92.3964 128.925 104.778 121.777C117.159 114.629 112.019 82.5466 93.297 50.1194C74.5752 17.6923 49.3612 -2.80026 36.9799 4.34807C24.5986 11.4964 29.7387 43.5787 48.4605 76.0058Z" stroke="#61DAFB" stroke-width="6.16343"/>
<path d="M48.4606 50.1195C29.7388 82.5467 24.5988 114.629 36.9801 121.777C49.3613 128.926 74.5754 108.433 93.2972 76.0059C112.019 43.5788 117.159 11.4965 104.778 4.34818C92.3965 -2.80015 67.1825 17.6924 48.4606 50.1195Z" stroke="#61DAFB" stroke-width="6.16343"/>
</g>
<defs>
<clipPath id="clip0_61_67">
<rect width="141.759" height="126.125" fill="white"/>
</clipPath>
</defs>
</svg>
