<svg width="129" height="129" viewBox="0 0 129 129" fill="none" xmlns="http://www.w3.org/2000/svg">
<path d="M63.1454 29.2184C42.3119 29.8805 36.1199 44.7629 34.7009 52.8254C36.5499 49.8368 42.3764 43.2795 50.9549 43.2795C60.9524 43.2795 68.5634 54.438 73.2074 57.921C78.8495 62.1526 90.1868 67.7398 105.07 63.21C116.938 59.598 122.442 46.9988 123.646 41.0219C117.906 48.8264 109.198 53.5141 98.4269 47.9879C91.0094 44.1824 85.4624 28.509 63.1454 29.2184Z" fill="#07B6D5"/>
<path d="M33.6689 64.6289C12.8354 65.291 6.64337 80.1734 5.22437 88.2359C7.07336 85.2473 12.8999 78.69 21.4784 78.69C31.4759 78.69 39.0869 89.8485 43.7309 93.3315C49.3729 97.5631 60.7102 103.15 75.5939 98.6205C87.4619 95.0085 92.9659 82.4093 94.1699 76.4324C88.4294 84.2369 79.7219 88.9246 68.9504 83.3984C61.5329 79.5929 55.9859 63.9195 33.6689 64.6289Z" fill="#07B6D5"/>
</svg>
