<svg width="540" height="505" viewBox="0 0 540 505" fill="none" xmlns="http://www.w3.org/2000/svg">
<path d="M406.291 260.779V387.718L427.524 422.322L429.14 424.954H512.92L514.612 260.779H406.291Z" fill="#E6E6E6"/>
<path opacity="0.1" d="M406.291 260.779V387.718L427.524 422.322L428.827 260.779H406.291Z" fill="black"/>
<path d="M204.033 257.393V384.333L182.8 418.937L181.184 421.568H97.4042L95.7114 257.393H204.033Z" fill="#E6E6E6"/>
<path opacity="0.1" d="M204.033 257.393V384.333L182.8 418.937L181.497 257.393H204.033Z" fill="black"/>
<path d="M540 254.855V262.471H84.71V251.469L127.023 229.466H502.765L540 254.855Z" fill="#E6E6E6"/>
<path opacity="0.1" d="M540 254.855V262.471H84.71V251.469L540 254.855Z" fill="black"/>
<path d="M149.873 292.936H129.562L121.099 287.013H159.181L149.873 292.936Z" fill="#3F3D56"/>
<path d="M149.873 317.478H129.562L121.099 311.554H159.181L149.873 317.478Z" fill="#3F3D56"/>
<path d="M149.873 352.175H129.562L121.099 346.251H159.181L149.873 352.175Z" fill="#3F3D56"/>
<path d="M149.873 386.872H129.562L121.099 380.948H159.181L149.873 386.872Z" fill="#3F3D56"/>
<path d="M460.451 296.321H480.762L489.224 290.398H451.142L460.451 296.321Z" fill="#3F3D56"/>
<path d="M460.451 320.863H480.762L489.224 314.939H451.142L460.451 320.863Z" fill="#3F3D56"/>
<path d="M460.451 355.56H480.762L489.224 349.637H451.142L460.451 355.56Z" fill="#3F3D56"/>
<path d="M460.451 390.257H480.762L489.224 384.333H451.142L460.451 390.257Z" fill="#3F3D56"/>
<path d="M474.282 82.6738H303.297C302.448 82.6737 301.607 82.8408 300.823 83.1658C300.038 83.4907 299.325 83.967 298.725 84.5675C298.124 85.168 297.648 85.8809 297.323 86.6655C296.998 87.4501 296.831 88.291 296.831 89.1402V204.32C296.831 205.169 296.998 206.01 297.323 206.795C297.648 207.579 298.124 208.292 298.725 208.893C299.325 209.493 300.038 209.97 300.823 210.295C301.607 210.619 302.448 210.787 303.297 210.787H368.205L365.773 226.312C365.773 226.312 351.876 233.695 361.647 233.912C371.419 234.129 417.452 233.912 417.452 233.912C417.452 233.912 426.355 233.912 412.241 226.095L409.953 210.787H474.282C475.131 210.787 475.972 210.619 476.757 210.295C477.542 209.97 478.255 209.493 478.855 208.893C479.455 208.292 479.932 207.579 480.257 206.795C480.582 206.01 480.749 205.169 480.749 204.32V89.1402C480.749 88.291 480.582 87.4501 480.257 86.6655C479.932 85.8809 479.455 85.168 478.855 84.5675C478.255 83.967 477.542 83.4907 476.757 83.1658C475.972 82.8408 475.131 82.6737 474.282 82.6738V82.6738Z" fill="#3F3D56"/>
<path d="M474.56 89.5137H303.019V185.49H474.56V89.5137Z" fill="#F2F2F2"/>
<path d="M388.79 87.5595C389.389 87.5595 389.875 87.0734 389.875 86.4738C389.875 85.8741 389.389 85.3881 388.79 85.3881C388.19 85.3881 387.704 85.8741 387.704 86.4738C387.704 87.0734 388.19 87.5595 388.79 87.5595Z" fill="#F2F2F2"/>
<path d="M388.79 206.118C391.068 206.118 392.915 204.271 392.915 201.992C392.915 199.714 391.068 197.867 388.79 197.867C386.511 197.867 384.664 199.714 384.664 201.992C384.664 204.271 386.511 206.118 388.79 206.118Z" fill="#F2F2F2"/>
<path d="M382.361 245.638V247.809H265.539V246.072L265.7 245.638L268.579 237.821H379.972L382.361 245.638Z" fill="#3F3D56"/>
<path d="M427.317 243.512C427.104 244.422 426.301 245.381 424.486 246.289C417.971 249.546 404.726 245.42 404.726 245.42C404.726 245.42 394.52 243.683 394.52 239.123C394.807 238.927 395.106 238.749 395.415 238.591C398.154 237.142 407.234 233.567 423.336 238.743C424.522 239.115 425.581 239.81 426.396 240.749C426.757 241.104 427.029 241.539 427.189 242.019C427.349 242.5 427.393 243.011 427.317 243.512Z" fill="#3F3D56"/>
<path opacity="0.1" d="M427.317 243.512C419.344 246.567 412.237 246.795 404.943 241.729C402.185 239.69 398.845 238.59 395.415 238.591C398.154 237.142 407.235 233.567 423.336 238.743C424.522 239.115 425.582 239.81 426.396 240.749C426.757 241.104 427.029 241.539 427.189 242.019C427.349 242.5 427.393 243.011 427.317 243.512Z" fill="black"/>
<path d="M417.32 241.729C418.879 241.729 420.143 241.34 420.143 240.861C420.143 240.381 418.879 239.992 417.32 239.992C415.761 239.992 414.497 240.381 414.497 240.861C414.497 241.34 415.761 241.729 417.32 241.729Z" fill="#F2F2F2"/>
<path opacity="0.1" d="M382.361 245.638V247.809H265.539V246.072L265.7 245.638H382.361Z" fill="black"/>
<path d="M116.954 0.019688C115.769 -0.0776556 114.582 0.187555 113.55 0.780176C112.537 1.47376 111.899 2.68885 111.247 3.81957C108.756 8.19436 105.383 12.0041 101.343 15.0074C98.3999 17.1634 94.6584 19.8516 95.1619 23.8266C95.4275 25.1394 95.9125 26.3979 96.5964 27.5495C99.3113 33.03 106.72 37.2652 105.991 43.5189C108.689 39.0032 105.081 36.7704 107.778 32.2547C109.063 30.1043 111.294 27.6768 113.233 29.0273C113.883 29.4795 114.309 30.2905 114.985 30.6873C116.599 31.634 118.315 29.8241 119.743 28.5421C124.668 24.1213 131.671 25.2794 137.799 26.6568C140.692 27.3071 143.87 28.1602 145.58 30.9253C147.829 34.5608 143.444 38.4872 142.336 42.5975C142.245 42.9478 142.241 43.3147 142.323 43.6669C142.406 44.0192 142.572 44.3463 142.808 44.6202C143.045 44.8941 143.344 45.1068 143.68 45.2399C144.016 45.3731 144.38 45.4228 144.74 45.3849C146.578 45.2035 148.757 45.0548 148.865 44.2479C151.179 44.3303 154.014 44.0683 155.005 41.6593C155.308 40.7062 155.468 39.7135 155.48 38.7134C155.844 34.6669 157.561 30.9753 158.699 27.124C159.837 23.2726 160.331 18.7591 158.411 15.3445C157.726 14.2084 156.879 13.1785 155.896 12.2872C145 1.74292 130.674 0.00403635 116.954 0.019688Z" fill="#2F2E41"/>
<path d="M108.361 51.4177C108.361 51.4177 110.731 71.1647 102.042 72.7445C93.3533 74.3243 109.941 101.18 109.941 101.18L149.435 105.92L139.956 74.3243C139.956 74.3243 133.637 71.9546 137.587 56.157C141.536 40.3593 108.361 51.4177 108.361 51.4177Z" fill="#FFB8B8"/>
<path d="M84.2695 390.672L87.4294 434.116H104.016L99.2776 390.672H84.2695Z" fill="#FFB8B8"/>
<path d="M205.911 308.524L208.281 344.859L226.449 336.96L219.339 306.945L205.911 308.524Z" fill="#FFB8B8"/>
<path d="M72.4214 224.797C72.4214 224.797 73.2113 270.61 77.9506 285.618C82.6899 300.625 81.9 301.415 81.1101 303.785C80.3202 306.155 79.5303 304.575 79.5303 308.524C79.5303 312.474 77.9506 374.874 79.5303 380.403C81.1101 385.933 74.7911 395.411 79.5303 396.201C84.2696 396.991 106.386 396.201 107.176 391.462C107.966 386.723 100.857 385.143 104.017 381.983C107.176 378.824 111.916 314.053 111.916 314.053L122.974 269.03L143.511 245.334H186.954L200.382 297.466C200.382 297.466 194.853 312.474 198.802 312.474C202.752 312.474 226.448 317.213 226.448 299.836C226.448 282.458 218.55 231.116 216.97 229.536C215.39 227.956 217.76 222.427 215.39 220.057C213.02 217.688 185.375 201.1 175.106 197.941C164.838 194.781 150.433 191.021 150.433 191.021L72.4214 224.797Z" fill="#2F2E41"/>
<path d="M226.448 330.641C226.448 330.641 214.6 326.692 209.071 338.54C203.542 350.388 205.911 353.548 205.911 353.548C205.911 353.548 224.079 359.867 227.238 356.707C228.613 355.332 232.978 354.855 237.471 354.754C244.314 354.601 246.135 344.919 239.672 342.664C239.479 342.597 239.284 342.539 239.086 342.489C232.767 340.909 226.448 330.641 226.448 330.641Z" fill="#2F2E41"/>
<path d="M126.133 64.4507C139.221 64.4507 149.83 53.8414 149.83 40.7543C149.83 27.6671 139.221 17.0578 126.133 17.0578C113.046 17.0578 102.437 27.6671 102.437 40.7543C102.437 53.8414 113.046 64.4507 126.133 64.4507Z" fill="#FFB8B8"/>
<path d="M95.3279 82.6181C95.3279 82.6181 134.032 90.5169 143.511 77.8788C152.989 65.2407 156.939 113.423 156.939 113.423L161.678 163.976L154.569 191.622C154.569 191.622 117.445 221.637 105.596 224.007C93.7481 226.377 75.5808 227.956 75.5808 227.956C75.5808 227.956 81.11 140.279 81.11 138.7C81.11 137.12 95.3279 82.6181 95.3279 82.6181Z" fill="#F9A826"/>
<path d="M107.099 67.8041C107.099 67.8041 98.4874 62.8711 96.1178 67.6104C93.7481 72.3497 71.6314 84.1979 69.2618 84.1979C66.8922 84.1979 74.0011 149.758 70.8416 157.657C67.682 165.556 52.6743 223.217 61.363 227.956C70.0517 232.696 63.7326 223.217 72.4213 235.065C81.11 246.914 123.764 246.914 126.133 242.174C128.503 237.435 107.176 201.89 111.126 168.715C115.075 135.54 121.394 89.7271 115.865 83.408C110.336 77.0889 107.099 67.8041 107.099 67.8041Z" fill="#2F2E41"/>
<path d="M135.612 73.1395L136.712 69.3531C136.712 69.3531 169.577 80.2484 171.157 87.3573C172.736 94.4663 171.946 144.229 166.417 148.178C160.888 152.128 152.989 158.447 158.518 167.925C164.048 177.404 170.367 187.672 175.106 188.462C179.845 189.252 188.534 194.781 186.164 200.31C183.795 205.84 155.359 195.571 155.359 195.571C155.359 195.571 136.402 181.353 137.192 159.237C137.981 137.12 135.612 73.1395 135.612 73.1395Z" fill="#2F2E41"/>
<path d="M163.258 166.346L144.3 201.89C144.3 201.89 116.655 230.326 132.452 233.485C148.25 236.645 156.939 207.419 156.939 207.419L177.476 178.194L163.258 166.346Z" fill="#FFB8B8"/>
<path d="M118.109 6.21978C117.154 6.14901 116.197 6.33457 115.338 6.75729C114.561 7.32481 113.92 8.05875 113.463 8.90551C111.356 12.0747 108.61 14.7681 105.4 16.813C103.005 18.3368 99.959 20.2368 100.369 23.0464C100.591 23.9884 100.987 24.8807 101.537 25.6776C103.754 29.5904 104.637 34.119 104.052 38.5782L110.639 29.0033C111.685 27.4834 113.501 25.7677 115.08 26.7222C115.609 27.0418 115.956 27.615 116.506 27.8954C117.819 28.5646 119.217 27.2854 120.379 26.3792C124.388 23.2546 130.089 24.0732 135.077 25.0468C137.433 25.5064 140.019 26.1094 141.412 28.0637C143.725 31.3114 141.309 36.0042 142.66 39.7561C143.038 39.4915 143.359 39.1537 143.604 38.7627C143.849 38.3717 144.013 37.9355 144.086 37.48C145.969 37.5382 148.277 37.353 149.084 35.6504C149.329 34.9831 149.46 34.2791 149.47 33.5682C149.767 30.7082 151.165 28.099 152.091 25.3769C153.017 22.6548 153.42 19.4647 151.857 17.0513C151.285 16.2335 150.595 15.5053 149.809 14.8904C140.939 7.43775 129.278 6.20872 118.109 6.21978Z" fill="#2F2E41"/>
<path d="M163.258 84.1978L170.617 86.1513C170.617 86.1513 187.744 130.011 183.795 160.026C179.845 190.042 177.476 183.723 177.476 183.723C177.476 183.723 171.157 169.505 156.939 172.665L163.258 84.1978Z" fill="#2F2E41"/>
<path d="M85.3641 428.374C83.4593 430.962 83.8412 434.662 82.154 437.398C80.6914 439.769 77.9351 441.012 76.1058 443.113C75.522 443.811 75.0017 444.559 74.5508 445.349C72.8538 448.192 71.4745 451.835 73.1458 454.693C74.4902 456.992 77.3162 457.89 79.908 458.502C83.1839 459.276 86.5875 459.896 89.9012 459.304C93.2148 458.713 96.4534 456.684 97.6348 453.532C97.8671 452.739 98.1431 451.96 98.4617 451.198C100.258 447.663 105.891 447.624 107.729 444.11C109.016 441.651 107.833 438.678 106.651 436.167L103.041 428.498C101.843 425.953 96.9867 427.416 94.4549 426.806C91.1529 426.011 87.7396 425.135 85.3641 428.374Z" fill="#2F2E41"/>
<path d="M58.9932 182.143L92.1682 233.485C92.1682 233.485 112.705 259.552 119.024 247.703C125.343 235.855 96.9075 216.108 96.9075 216.108L75.5807 176.614L58.9932 182.143Z" fill="#FFB8B8"/>
<path d="M75.5808 85.7776L69.2617 84.1978C69.2617 84.1978 56.6236 88.1472 53.4641 104.735C50.3046 121.322 52.6742 187.672 56.6236 188.462C60.573 189.252 76.1297 176.909 78.6199 179.526C81.11 182.143 73.2111 168.715 75.5808 161.606C77.9504 154.497 75.5808 85.7776 75.5808 85.7776Z" fill="#2F2E41"/>
<path d="M372.553 121.035H352.138V125.95H372.553V121.035Z" fill="#F9A826"/>
<path d="M443.251 121.035H436.068V125.95H443.251V121.035Z" fill="#F9A826"/>
<path d="M457.617 121.035H450.434V125.95H457.617V121.035Z" fill="#F9A826"/>
<path d="M428.507 121.035H379.737V125.95H428.507V121.035Z" fill="#F9A826"/>
<path d="M346.845 152.793H326.43V157.707H346.845V152.793Z" fill="#F9A826"/>
<path d="M417.543 152.793H410.359V157.707H417.543V152.793Z" fill="#F9A826"/>
<path d="M431.909 152.793H424.726V157.707H431.909V152.793Z" fill="#F9A826"/>
<path d="M402.798 152.793H354.028V157.707H402.798V152.793Z" fill="#F9A826"/>
<path d="M431.153 131.999H410.738V136.914H431.153V131.999Z" fill="#F9A826"/>
<path d="M458.752 131.999H438.336V136.914H458.752V131.999Z" fill="#F9A826"/>
<path d="M333.613 131.999H326.43V136.914H333.613V131.999Z" fill="#F9A826"/>
<path d="M347.979 131.999H340.796V136.914H347.979V131.999Z" fill="#F9A826"/>
<path d="M403.932 131.999H355.162V136.914H403.932V131.999Z" fill="#F9A826"/>
<path d="M388.81 142.585H368.395V147.5H388.81V142.585Z" fill="#F9A826"/>
<path d="M361.211 142.585H340.796V147.5H361.211V142.585Z" fill="#F9A826"/>
<path d="M333.613 142.585H326.43V147.5H333.613V142.585Z" fill="#F9A826"/>
<path d="M458.752 142.585H451.568V147.5H458.752V142.585Z" fill="#F9A826"/>
<path d="M444.385 142.585H395.615V147.5H444.385V142.585Z" fill="#F9A826"/>
</svg>
